<svg version="1.2" xmlns="http://www.w3.org/2000/svg" viewBox="0 0 2800 350" width="2800" height="350">
	<path
		fill="#3a4d92"
		fill-rule="evenodd"
		clip-rule="evenodd"
		d="m112 8.5c14.1 0.3 19.1 0.7 25.5 2.5 4.4 1.2 11.2 3.6 15 5.3 3.8 1.7 10.8 5.5 15.5 8.6 4.7 3 12.6 9.6 17.6 14.6 4.9 4.9 11.1 11.9 13.6 15.5 2.6 3.6 6.4 10.1 8.6 14.5 2.2 4.4 4.9 10.9 6.1 14.5 1.1 3.6 2.7 10.5 3.6 15.5 0.8 5 1.5 12.8 1.5 17.5 0 4.7-0.7 12.6-1.5 17.5-0.9 4.9-2.5 11.9-3.6 15.5-1.2 3.6-3.9 10.1-6.1 14.5-2.2 4.4-6 10.9-8.6 14.5-2.5 3.6-8.7 10.6-13.6 15.5-5 5-12.9 11.6-17.6 14.6-4.7 3.1-11.7 6.9-15.5 8.6-3.8 1.7-10.8 4.1-15.5 5.4-7.4 2-10.8 2.3-27 2.4-16.4 0-19.5-0.3-27-2.4-4.7-1.2-11.7-3.7-15.5-5.4-3.8-1.7-8.5-4.2-10.3-5.6-1.9-1.5-4.2-4.4-5.3-6.6-1-2.2-1.9-5.8-1.9-8 0-2.2 1.1-6.2 2.3-9 1.3-2.7 3.6-5.9 5.3-7 1.6-1.2 4.1-2.6 5.7-3.3 1.5-0.7 4.8-1.2 7.5-1.2 2.8 0 6.9 0.9 10.2 2.4 3 1.3 8.4 3.1 12 4.1 3.9 1 10.3 1.6 16 1.6 5.2 0 12.7-0.7 16.5-1.6 3.8-0.9 9.7-2.9 13-4.5 3.3-1.6 8.7-4.9 12-7.4 3.3-2.5 8.4-7.4 11.3-10.8 2.9-3.5 7.1-9.9 9.3-14.3 2.1-4.5 4.5-11.4 5.4-15.7 0.8-4.3 1.5-10.5 1.5-13.8 0-3.3-0.6-9.3-1.4-13.2-0.8-4-2.2-9.3-3.2-11.8-0.9-2.5-3.7-7.5-6.1-11.2-2.3-3.8-6.9-9.4-10.1-12.6-3.1-3.2-8.9-7.6-12.7-9.9-3.8-2.3-9.7-5.1-13-6.2-3.3-1.1-9.7-2.4-14.3-3-5.6-0.8-10.4-0.8-15.5-0.1-3.9 0.6-9.7 1.7-12.7 2.6-3 0.9-8.6 3.2-12.4 5.2-3.8 2.1-10.1 6.6-13.9 10.2-3.8 3.6-9.1 9.7-11.6 13.5-2.6 3.8-5.7 9.9-6.9 13.5-1.2 3.6-2.6 9.9-3.2 14-0.5 4.3-1 43.2-1 91.8 0 80.7-0.1 84.4-1.9 88-1 2-3 4.7-4.3 5.8-1.2 1.2-3.8 2.9-5.6 3.8-1.7 0.9-5.2 1.6-7.7 1.6-2.5 0-5.6-0.4-7-1-1.4-0.6-4.1-2.5-6.1-4.2-2-1.8-4.5-5-5.5-7-1.8-3.6-1.9-7.6-1.4-187.3l2.6-9.5c1.5-5.2 4.4-13.3 6.6-18 2.1-4.7 6.3-12.1 9.3-16.4 3-4.4 9.1-11.6 13.5-16 4.4-4.5 11.8-10.7 16.5-13.8 4.7-3.1 11.4-7 15-8.6 3.6-1.7 9.7-4 13.5-5.1 3.8-1.2 9.2-2.6 12-3.1 2.7-0.5 12.9-0.7 22.5-0.5zm2382.5 79.6c3-0.1 6.6 0.7 9 1.8 2.2 1.1 5.2 3.7 6.7 5.8 1.5 2.1 2.9 5 3.2 6.6 0.3 1.5 0.7 2.7 0.8 2.7 0.2 0 3.5-2 7.3-4.5 3.8-2.5 10.7-5.9 15.2-7.5 4.6-1.7 11.6-3.5 15.5-4.1 4.1-0.7 12.1-0.9 18.3-0.6 6.1 0.3 13.7 1.3 17 2.1 3.3 0.9 10.1 3.6 15 6 5 2.5 12.1 7.1 16 10.4 3.8 3.3 9.5 9 18 19.3l8.1-8.8c4.4-4.8 10.9-11 14.5-13.6 3.5-2.7 9.6-6.3 13.4-8.1 3.8-1.8 9.9-4.1 13.5-5.2 5.1-1.5 9.8-1.9 22-1.9 11.9 0 16.9 0.4 21.5 1.8 3.3 1 7.8 2.5 10 3.4 2.2 0.9 7.2 3.5 11 5.7 3.8 2.2 10.8 7.6 15.4 12.1 4.5 4.4 10.5 10.9 13.1 14.5 2.7 3.6 6.6 10.1 8.8 14.5 2.2 4.4 4.9 10.7 6 14 1.1 3.3 2.8 9.6 3.9 14 1.6 7.2 1.8 13.1 1.8 116.1l-2.8 4.2c-1.5 2.3-4.4 5.4-6.5 6.9-2 1.5-5.5 2.9-7.7 3.1-2.2 0.3-5.7 0.2-7.8-0.2-2.6-0.4-5.1-2-8.5-5.3-3.9-3.8-5.1-5.9-6-10-0.8-3.6-1.2-20.6-1.2-53.3 0-45.3-0.1-48.5-2.1-56.2-1.1-4.6-3.6-11.2-5.5-14.8-1.8-3.6-5.8-9.5-8.9-13.2-3-3.8-7.6-8.2-10.3-10-2.6-1.8-7-4.1-9.7-5.1-2.8-1-7.9-2.1-11.5-2.4-4.4-0.4-8.6 0-13 1.1-3.6 0.9-8.5 2.9-11 4.3-2.5 1.5-7.2 5.4-10.5 8.8-3.7 3.7-7.6 9.2-10.1 14.1-2.3 4.3-4.9 10.2-5.8 12.9-0.8 2.8-2 9.1-2.6 14-0.5 5-1 29.4-1 54.3 0 35.6-0.3 45.9-1.3 48.5-0.8 1.7-3.3 4.9-5.5 7-2.3 2-5.3 4.2-6.7 4.7-1.4 0.6-4.3 1-6.5 1-2.2 0-5.7-0.7-7.8-1.6-2-0.8-5-2.7-6.5-4.2-1.6-1.5-3.6-4-4.5-5.7-1.5-2.7-1.8-9.2-2.2-57-0.6-53-0.6-54.1-2.9-61-1.2-3.8-3.6-9.5-5.3-12.5-1.7-3-4.7-7.5-6.7-10-2-2.5-5.4-6.2-7.6-8.2-2.2-2.1-6.4-4.9-9.3-6.3-2.8-1.4-7.6-3-10.5-3.6-2.9-0.7-8.1-0.9-12-0.5-4 0.3-9.2 1.7-13 3.4-3.6 1.6-8.7 5.1-12.1 8.2-3.2 3-7.9 8.7-10.5 12.5-2.6 3.9-5.9 10.6-7.4 15-1.5 4.4-3.1 11.4-3.7 15.5-0.5 4.1-1 28.4-1 54 0 43-0.2 46.8-1.9 50.5-1 2.2-2.9 5-4.2 6.2-1.3 1.2-4.1 2.9-6.2 3.7-2 0.9-5.5 1.6-7.7 1.6-2.2 0-5.5-0.7-7.3-1.5-1.7-0.8-4.8-3.2-6.8-5.2-2-2.1-4.2-5.4-4.8-7.3-0.8-2.5-1.1-28.1-1.1-92.5 0-83.2 0.2-89.3 1.8-93 1-2.2 3.4-5.2 5.3-6.7 1.9-1.5 4.5-3.1 5.9-3.7 1.4-0.5 4.7-1 7.5-1zm-1618.8-86.1c2.4 0 6 0.7 8 1.6 2.1 0.8 4.9 2.5 6.2 3.7 1.3 1.2 3.2 4 4.2 6.2 1.7 3.6 1.9 7.1 1.9 74.5h35.2c35.1 0 35.3 0 39.8 2.3 2.7 1.4 5.7 4.1 7.5 6.8 1.9 3 3.1 6 3.3 9.4 0.3 3.4-0.1 6.1-1.3 8.5-0.9 1.9-2.9 4.8-4.4 6.3-1.4 1.6-4.3 3.7-6.4 4.8-3.4 1.8-6.2 1.9-73.7 1.9v34.8c0 27.5 0.3 36.5 1.6 43.2 0.8 4.7 2.8 11.2 4.4 14.5 1.5 3.3 4.8 8.7 7.3 12 2.4 3.3 7.3 8.3 10.8 11.1 3.5 2.8 8.6 6.3 11.4 7.7 2.7 1.3 7.5 3.2 10.5 4.1 3 1 10.2 2.1 16 2.6 8.7 0.8 11.2 1.4 14.2 3.5 2.1 1.4 5 4.4 6.5 6.8 1.6 2.5 2.9 6.1 3.1 8.7 0.3 2.6-0.2 6-1 8-0.8 1.9-2.8 5-4.4 6.9-1.6 1.8-4.7 4.3-6.9 5.4-3.5 1.8-5.3 1.9-15 1.4-7-0.4-14.3-1.5-20.3-3.2-5-1.4-12.2-3.9-16-5.6-3.7-1.7-10.5-5.6-15.2-8.6-4.7-3.1-12.3-9.5-17-14.2-4.7-4.7-10.5-11.5-12.8-15.1-2.4-3.6-5.6-9.2-7.2-12.5-1.6-3.3-3.8-8.9-5-12.5-1.1-3.6-2.7-10.3-3.5-15-1.3-7.1-1.5-24.1-1.5-101.2 0-81.7 0.2-93.2 1.6-96.5 0.8-2.1 2.5-4.9 3.7-6.2 1.2-1.3 4-3.2 6.2-4.2 2.2-1 5.9-1.9 8.2-1.9zm-160.7 6.3c9.5 0.2 10.8 0.4 13.9 2.7 1.9 1.4 4.6 4 6 5.9 2.3 3 2.6 4.4 2.6 11.1 0 6.8-0.3 8.1-2.8 11.3-1.5 2-4.4 4.8-6.5 6.1-2.7 1.8-5.8 2.6-11.7 3.1-4.4 0.3-10.8 1.3-14.3 2.1-3.4 0.8-8.8 2.7-12 4.2-3.1 1.5-7.7 4.2-10.2 5.9-2.5 1.6-7 5.7-10 9-3 3.3-7 8.9-8.9 12.4-1.9 3.5-4.3 9.3-5.3 12.9-1 3.6-1.8 7.3-1.8 8.3 0 1.6 2.2 1.7 32.7 1.7 32.5 0 32.8 0 37.3 2.3 3 1.6 5.5 4 7.5 7.2 2.4 3.9 3 5.9 2.9 10.4 0 3.1-0.8 7-1.6 8.6-0.9 1.7-2.9 4.2-4.5 5.6-1.5 1.5-4.4 3.5-6.3 4.5-3.2 1.7-6.5 1.9-69 2.4l-0.5 137.5-2.5 4.4c-1.4 2.4-4.2 5.8-6.3 7.5-3.5 2.8-4.5 3.1-11.1 3.1-6.4 0-7.7-0.3-10.9-2.7-2-1.6-4.9-4.7-9.2-11.2l-0.3-86c-0.2-57.9 0-89.7 0.8-97.1 0.7-7.4 2.2-14.3 4.4-21 1.9-5.5 5.3-13.4 7.6-17.5 2.4-4.1 6.2-10 8.5-13 2.3-3 8.3-9.3 13.2-14 4.9-4.7 12.5-10.6 16.9-13.2 4.3-2.7 11-6.1 14.9-7.6 3.8-1.6 10.1-3.6 14-4.5 3.8-0.9 8.1-1.8 9.5-2.1 1.4-0.2 7.2-0.3 13-0.3zm83-0.3c6.5 0 8.1 0.3 12 2.8 3.2 2 5.3 4.3 7.3 8.2 1.5 3 2.7 7.1 2.7 9 0 1.9-0.9 5.3-1.9 7.5-1 2.2-3.4 5.5-5.4 7.3-2.1 1.7-4.8 3.7-6.2 4.2-1.4 0.6-5.4 1-9 1-4.4 0-7.7-0.6-10.3-1.9-2-1-4.7-3-5.9-4.3-1.2-1.2-2.9-4-3.7-6-0.9-2.1-1.6-5.7-1.6-8 0-2.4 0.6-5.9 1.4-7.8 0.8-1.9 2.6-4.7 4-6.2 1.4-1.6 4.1-3.5 5.8-4.3 1.9-0.8 6.5-1.4 10.8-1.5zm414.2 0.2c4.9 0.2 7.4 0.9 9.5 2.4 1.5 1.2 4.1 3.8 8.8 9.6l0.3 42.1c0.1 23.2 0.4 42.8 0.7 43.5 0.4 0.8 2 0.2 5.2-2 2.7-1.8 8.4-4.9 12.8-6.9 4.4-2.1 11.6-4.8 16-6.1 6.9-2 10.2-2.3 24.5-2.3 14.3 0 17.5 0.3 24.5 2.4 4.4 1.3 11.4 3.9 15.5 5.8 4.1 1.9 10.4 5.5 14 8.1 3.6 2.6 9.5 7.7 13.2 11.5 3.8 3.7 9.1 10 11.9 14 2.8 3.9 6.6 10.1 8.4 13.7 1.7 3.6 4.1 9.2 5.3 12.5 1.1 3.3 2.8 9.6 3.8 14 1.7 7.3 1.9 12.9 1.9 114.1l-2.8 4.2c-1.5 2.3-4.6 5.4-6.9 7-3.5 2.3-5.2 2.7-10.9 2.7-5.9 0-7.3-0.4-11-3-2.4-1.7-5.3-5-8.9-12v-48.2c0-40.5-0.3-49.6-1.6-56-0.9-4.3-2.5-10-3.6-12.8-1.1-2.7-3.5-7.2-5.3-10-1.8-2.7-5.9-7.8-9.1-11.2-3.2-3.5-8.6-7.9-11.9-9.8-3.3-1.9-8.5-4.3-11.5-5.2-3.5-1.1-9.1-1.7-15.5-1.7-7.2-0.1-11.6 0.5-15.5 1.8-3 1-8.2 3.5-11.5 5.5-3.3 1.9-8.5 6.1-11.5 9.1-3.1 3-7.4 8.7-9.7 12.5-2.3 3.9-5.1 9.7-6.2 13-1.1 3.3-2.4 8.9-3 12.5-0.7 3.9-1.1 25.3-1.1 53.8 0 44.4-0.1 47.4-1.9 51-1 2-3 4.7-4.3 5.8-1.2 1.2-3.8 2.9-5.6 3.8-1.7 0.9-5.2 1.6-7.7 1.6-2.5 0-5.6-0.4-7-1-1.4-0.5-4.1-2.5-6.2-4.2-2-1.8-4.4-5.1-5.4-7.3-1.8-3.8-1.9-10.5-1.9-133.2 0-88.9 0.3-130.2 1.1-132 0.5-1.6 2.5-4.3 4.2-6.2 1.8-1.8 4.5-4.2 6.2-5.3 2.4-1.5 4.4-1.8 9.7-1.6zm462 0c7.9 0.3 8.9 0.5 12.5 3.4 2.1 1.7 4.7 4.6 5.8 6.5 1.4 2.4 2 5.2 2 9.4 0 4.1-0.6 7.2-2.1 10-1.2 2.4-4 5.3-7 7.3-4.5 3-5.5 3.3-12.4 3.2-6 0-8.3-0.5-11.5-2.4-2.2-1.3-5.3-4.3-7-6.7-2.1-3-3.1-5.7-3.3-9.3-0.3-3.1 0.2-6.7 1.2-9.1 0.8-2.2 2.8-5.2 4.3-6.7 1.5-1.5 4.1-3.4 5.8-4.3 2.2-1.2 5.2-1.5 11.7-1.3zm-1413.7 79.9q5-0.1 9.4 2.2c2.5 1.2 5.5 3.8 6.8 5.7 1.3 1.9 2.7 5.2 3.1 7.3 0.4 2 0.8 3.7 1 3.7 0.1 0 2.1-1.3 4.5-2.9 2.3-1.6 7.3-4.5 11.2-6.4 3.9-2 11.1-4.8 16-6.3 8.2-2.5 10.5-2.7 26-2.8 16.2-0.1 17.2 0 22 2.4 3.5 1.8 6 4 8.3 7.5 2.6 4 3.3 6 3.2 10 0 2.8-0.9 6.8-1.9 9-1 2.2-2.8 5-4 6.3-1.1 1.2-3.6 2.9-5.3 3.8-2.4 1.2-5.3 1.6-10.3 1.4-3.9-0.2-10.4-0.3-14.5-0.3-5.3 0-9.6 0.7-14.5 2.3-3.9 1.3-9.7 4.2-12.9 6.4-3.3 2.3-8.6 7.3-11.8 11.1-3.2 3.9-7.4 10.2-9.3 14-1.9 3.9-4.2 9.9-5.1 13.5-1.5 5.6-1.8 14.1-2.9 110.8l-3.1 3.9c-1.7 2.1-4.8 4.8-7 6-2.5 1.5-5.6 2.3-8.6 2.3-2.7 0-6.4-0.7-8.3-1.5-1.9-0.8-4.9-3-6.6-4.7-1.7-1.8-3.7-4.8-4.5-6.5-1.2-2.8-1.4-18.4-1.4-93 0-84 0.2-90.1 1.8-93.8 1-2.2 3.5-5.3 5.5-7 2-1.6 4.7-3.3 5.9-3.7 1.3-0.3 4.6-0.6 7.3-0.7zm221.5 0c6.6-0.1 15.3 0.5 20.5 1.4 4.9 0.9 12.4 2.8 16.5 4.2 4.1 1.4 10.4 4.2 14 6.1 3.6 1.9 9.8 6 13.9 9.1 4.1 3.1 10.3 8.8 13.9 12.6 3.5 3.9 8.1 9.5 10.2 12.5 2 3 5.2 8.4 7 12 1.8 3.6 4.4 9.7 5.7 13.5 1.3 3.9 3 11.1 3.8 16 0.8 4.9 1.5 12.7 1.5 17.3 0 4.5-0.5 11.5-1.1 15.5-0.6 3.9-1.9 10.6-3.1 14.7-1.1 4.1-3.7 10.9-5.7 15-2 4.1-5.5 10.2-7.6 13.5-2.2 3.3-7.4 9.5-11.5 13.9-4.1 4.3-10.6 10.2-14.5 13.1-3.9 3-10.6 7.2-15 9.4-4.4 2.1-10.8 4.9-14.2 6-3.5 1.2-10.2 2.8-15 3.6-4.9 0.8-13.4 1.5-19 1.5-6.4 0-14.2-0.8-20.5-2.1-5.7-1.1-13.9-3.5-18.3-5.4-4.4-1.8-10.5-4.7-13.5-6.5-3-1.8-8.2-5.4-11.5-8-3.3-2.6-9.1-8.1-13-12.1-3.9-4.1-8.8-10.1-10.9-13.4-2.2-3.3-5.7-9.4-7.7-13.5-2.1-4.1-5-12-6.4-17.5-1.7-6.3-2.8-14-3.2-21-0.4-6.7-0.1-14.7 0.7-20.5 0.6-5.2 2.3-13.1 3.7-17.5 1.4-4.4 4.1-11.1 6.1-15 1.9-3.8 5.2-9.5 7.2-12.5 2.1-3 6.7-8.6 10.2-12.5 3.6-3.8 9.8-9.5 13.9-12.6 4.1-3.1 10.3-7.2 13.9-9.1 3.6-1.9 9.9-4.7 14-6.1 4.1-1.4 10-3 13-3.6 3-0.6 6.6-1.3 8-1.5 1.4-0.2 7.7-0.4 14-0.5zm-24 44.9c-3 1.2-7.7 3.7-10.5 5.5-2.7 1.8-7.9 6.4-11.5 10.2-3.6 3.7-7.9 9.1-9.5 11.8-1.6 2.8-4 8.2-5.3 12-1.6 4.8-2.6 10.2-2.9 17-0.4 7 0 12.2 1.1 17.5 0.8 4.1 3.4 11.1 5.5 15.5 2.2 4.4 6.4 10.7 9.4 14 2.9 3.3 8.5 8.1 12.3 10.7 3.8 2.5 10.5 5.9 14.9 7.4 7.3 2.6 9.3 2.9 21.5 2.9 12.2 0 14.2-0.3 21.5-2.9 4.4-1.5 11.1-4.9 14.9-7.4 3.8-2.6 9.4-7.4 12.3-10.7 3-3.3 7.2-9.6 9.4-14 2.1-4.4 4.7-11.4 5.5-15.5 1.1-5.3 1.4-10.4 1.1-17.5-0.4-5.8-1.4-12.7-2.6-16.5-1.2-3.6-3.4-8.9-5.1-11.7-1.6-2.9-6-8.5-9.7-12.4-3.8-3.9-9.3-8.7-12.3-10.7-3-2-9.3-4.9-14-6.5-6.5-2.2-10.8-3-18.5-3.3-6.4-0.2-12.2 0.1-16 1-3.3 0.8-8.5 2.4-11.5 3.6zm341.5-44.6c5.8 0.4 7.6 1 10.5 3.3 1.9 1.6 4.5 4.9 8 11.8v180l-2.4 4.5c-1.3 2.5-4.1 5.8-6.2 7.3-2.2 1.5-5.7 3-7.9 3.4-2.2 0.3-5.7 0.3-7.7-0.1-2.5-0.4-5.4-2.1-8.4-4.8-2.6-2.4-5.3-5.8-6-7.5-1.2-2.7-1.4-19.9-1.4-93.3 0-77.1 0.2-90.5 1.5-93.2 0.8-1.8 2.7-4.5 4.2-6 1.6-1.5 4.2-3.4 5.8-4.3 2.3-1.2 4.7-1.5 10-1.1zm295 0c11.2 0.3 17 0.9 23 2.4 4.4 1.2 10.9 3.3 14.5 4.7 3.6 1.4 8.5 3.7 11 5.2 2.5 1.4 6.8 4.2 9.5 6.2 2.8 2 7.2 5.6 9.9 8.1 2.6 2.5 5.7 6.2 6.7 8.3 1.2 2.2 1.9 5.8 1.9 9 0 3.3-0.8 6.8-2.3 9.6-1.4 2.9-3.8 5.5-6.7 7.3-3.7 2.3-5.6 2.8-11 2.8-5.4 0.1-7.2-0.4-10.5-2.6-2.2-1.5-6-4.4-8.5-6.6-2.5-2.2-6.3-5-8.5-6.3-2.2-1.3-7.6-3.6-12-5.1-6.9-2.4-9.6-2.8-19.5-2.8-6.9-0.1-13.5 0.5-16.5 1.3-2.7 0.8-7.2 2.3-10 3.4-2.7 1.2-7.5 3.7-10.5 5.7-3 2.1-8.4 6.8-12 10.7-3.9 4.2-8 9.9-10.2 14.4-2 4.1-4.4 10.3-5.2 13.9-0.9 3.6-1.6 10.6-1.6 15.5 0 6.1 0.7 11.4 2.1 16.5 1.1 4.1 3.7 10.7 5.7 14.5 2.4 4.5 6.3 9.7 11.2 14.6 5.8 5.8 9.5 8.5 16 11.7 4.7 2.3 11.7 4.9 15.5 5.7 3.8 0.8 10.5 1.5 14.8 1.5 4.2 0 10.9-0.7 14.7-1.5 3.8-0.8 9.8-2.9 13.3-4.6 3.4-1.7 7.5-4 9.2-5.2 1.7-1.1 4.9-3.8 7.3-5.9 2.3-2.1 5.8-4.5 7.7-5.3 1.9-0.8 5.2-1.5 7.3-1.5 2 0 5.3 0.4 7.2 0.9 2.1 0.6 5.1 2.7 7.4 5.3 2.2 2.4 4.6 5.8 5.3 7.6 0.7 1.7 1.3 4.7 1.3 6.5 0 1.7-0.9 5-1.9 7.2-1 2.2-2.9 5.2-4.2 6.6-1.3 1.4-5.1 4.8-8.4 7.5-3.3 2.8-7.8 6.2-10 7.6-2.2 1.4-6.7 3.9-10 5.5-3.3 1.7-8.9 3.9-12.5 5.1-3.6 1.1-9 2.6-12 3.4-3.4 0.8-11.6 1.3-21.5 1.3-11.9 0-17.9-0.5-23.5-1.8-4.1-1-10-2.7-13-3.8-3-1.1-8.9-3.8-13-5.9-4.1-2.2-11.3-7-16-10.7-4.6-3.7-11.6-10.5-15.5-15-3.8-4.5-9.1-12-11.7-16.5-2.6-4.6-5.9-11.6-7.3-15.5-1.4-4-3.2-10.6-4-14.5-0.9-4-1.8-11.3-2.2-16.3-0.4-6 0-12.7 1.1-20 0.8-6 2.7-14.4 4.1-18.5 1.4-4.1 4.2-10.6 6.1-14.5 2-3.8 5.7-9.9 8.2-13.5 2.6-3.6 8.1-9.9 12.2-14 4.2-4.1 10.7-9.6 14.5-12.2 3.9-2.6 10.8-6.5 15.5-8.6 4.7-2.2 11.4-4.8 15-5.7 3.6-0.9 9-2 12-2.5 3-0.5 12.3-0.7 20.5-0.6zm418.5 0.1c12 0.2 17.3 0.8 23.5 2.5 4.4 1.2 10.5 3.1 13.5 4.3 3 1.2 8.9 4.1 13 6.5 4.1 2.3 10.9 7 14.9 10.5 4.1 3.4 10.1 9.4 13.4 13.2 3.2 3.9 7.8 10.4 10.2 14.5 2.4 4.1 5.8 11.1 7.4 15.5 1.6 4.4 3.6 11.8 4.5 16.5 1.4 7.1 1.6 16.9 1.6 60.3 0 45.6-0.2 52.1-1.6 55-0.9 1.7-2.6 4.3-3.8 5.5-1.1 1.3-3.9 3.3-6.1 4.4-3 1.6-5.3 1.9-9.5 1.6-3.8-0.3-6.7-1.2-9.5-3.1-2.2-1.5-5.1-4.3-9-10l-0.6-52.6c-0.4-36.6-0.9-54-1.8-57.1-0.7-2.5-2.9-7.8-4.9-11.9-2.1-4.3-6.3-10.3-9.8-14-3.3-3.6-9.2-8.7-13-11.3-3.8-2.6-10.5-5.9-14.9-7.4-7-2.4-9.5-2.8-20.5-2.8-10.8 0-13.6 0.4-20.5 2.7-4.4 1.4-10.9 4.5-14.5 6.8-3.6 2.3-8.7 6.5-11.5 9.3-2.7 2.8-6.4 7.1-8.1 9.6-1.7 2.5-4.1 6.5-5.2 9-1.1 2.5-2.8 7.2-3.8 10.5-1.2 4.1-1.8 9.3-1.8 16.5 0 8.2 0.5 12.1 2.3 18 1.3 4.1 3.3 9.5 4.6 12 1.3 2.5 4.5 7.3 7.1 10.7 2.7 3.4 7.6 8.3 10.9 10.8 3.3 2.6 8.7 5.9 12 7.4 3.3 1.6 9.3 3.6 13.3 4.5 3.9 0.9 10.7 1.6 15 1.6 4.2 0 11.3-0.9 15.7-1.9 4.4-1 10.9-2.7 14.5-3.6 6-1.7 6.8-1.7 11-0.2 2.6 0.9 6.1 3.3 8.3 5.6 2.1 2.3 4.2 5.9 4.8 8.4 0.8 3.2 0.8 5.5-0.2 9.7-0.7 3.1-2.4 6.8-3.9 8.5-1.5 1.6-5.6 4.4-9.1 6.2-3.5 1.8-10 4.2-14.4 5.3-5.4 1.5-12.4 2.3-21.5 2.7-10 0.4-15.9 0.1-22.7-1.1-5.1-0.9-12.1-2.5-15.5-3.7-3.5-1.1-9.9-3.9-14.3-6-4.4-2.2-10.5-5.9-13.5-8.2-3-2.2-8.6-7-12.4-10.6-3.8-3.6-9.2-9.7-12.1-13.6-2.8-3.8-6.3-9-7.8-11.5-1.4-2.5-3.8-7.4-5.2-11-1.4-3.6-3.5-10.1-4.7-14.5-1.9-6.7-2.2-10.7-2.2-25 0-14.3 0.3-18.4 2.2-26 1.3-4.9 4.3-13.3 6.8-18.5 2.5-5.2 6.6-12.4 9.2-16 2.6-3.6 7.4-9.4 10.7-12.9 3.3-3.5 9.2-8.7 13-11.6 3.8-2.9 9.5-6.6 12.5-8.3 3-1.7 8.4-4.2 12-5.5 3.6-1.3 9.7-3.1 13.5-4 3.8-0.9 8.3-1.8 10-2.1 1.7-0.2 10-0.3 18.5-0.1zm161.7-0.3c4.9 0.2 6.9 0.9 10.4 3.3 2.3 1.7 5.2 4.8 6.3 7 2.1 4 2.1 5 2.4 91 0.1 57-0.1 88.9-0.8 92.5-0.6 3.4-2.1 6.9-3.9 9-1.5 1.9-4.5 4.5-6.7 5.7-2.5 1.5-5.6 2.3-8.6 2.3-2.7 0-6.3-0.6-8-1.3-1.8-0.8-5-3.3-7-5.5-2.1-2.3-4.2-5.9-4.8-7.9-0.6-2.4-1-36.5-1-91.3 0-54.8 0.4-88.9 1-91.2 0.6-2.1 2.2-5.2 3.8-7 1.5-1.7 4.5-4 6.7-5 2.8-1.3 5.8-1.8 10.2-1.6zm75.8-0.2c3.3 0 6.5 0.7 9.5 2.3 2.5 1.3 5.5 3.9 6.8 5.8 1.3 1.9 2.5 4.5 2.8 5.9 0.3 1.4 0.8 3.1 1 3.8 0.3 0.8 2.3 0 6.2-2.5 3.1-2 8.9-5.1 12.7-6.9 3.8-1.7 10.6-4.2 15-5.5 7-2.1 10.2-2.4 24.5-2.4 14.3 0 17.6 0.3 24.5 2.3 4.4 1.3 11.2 3.8 15 5.6 3.8 1.8 9.9 5.2 13.5 7.6 3.6 2.4 9.9 7.8 14.1 11.9 4.1 4.2 9.6 10.5 12.1 14.1 2.6 3.6 6.4 10.1 8.6 14.5 2.2 4.4 5.2 11.8 6.5 16.5 1.4 4.7 3 12 3.6 16.3 0.7 4.7 1.1 26.4 1.1 56.2 0 41.6-0.2 49-1.6 52.3-0.8 2-2.7 5-4.2 6.5-1.5 1.6-4.5 3.8-6.7 4.9-3 1.6-5.3 1.9-9.5 1.6-3.9-0.3-6.7-1.2-9.9-3.4-2.3-1.6-5.3-4.5-6.5-6.4-2.1-3.4-2.1-4.6-2.7-56.5-0.5-46.6-0.8-53.7-2.3-59-1-3.3-3.4-9.1-5.4-13-2.4-4.7-6.4-9.7-11.7-15.1-4.4-4.4-10-9.2-12.5-10.5-2.5-1.4-6.7-3.3-9.5-4.2-2.7-1-8.4-2-12.5-2.4-4.1-0.3-10.2 0-13.5 0.6-3.3 0.6-9.4 2.7-13.5 4.7-5.9 2.8-9.3 5.4-16 12.2-6.4 6.5-9.4 10.6-12.1 16.2-2 4.1-4.5 10.9-5.5 15-1.6 6.6-1.9 13.7-2.9 109.5l-2.5 3.4c-1.4 1.9-4 4.6-5.9 6-3 2.2-4.5 2.6-10.6 2.6-6.2 0-7.6-0.3-10.8-2.7-2-1.6-4.9-4.7-9.2-11.2v-183.1l3.1-4.4c1.8-2.4 5.1-5.5 7.5-6.8q4.3-2.3 9.4-2.3zm399.5 0.5c11.5 0.2 17.6 0.9 23.8 2.4 4.5 1.2 11.5 3.5 15.5 5.3 3.9 1.7 10.8 5.5 15.2 8.4 4.4 2.9 10.4 7.4 13.4 10.1 3 2.6 6.3 6.6 7.3 8.8 0.9 2.2 1.8 6 1.8 8.5 0 2.5-0.9 6.3-1.9 8.5-1 2.2-3.1 5.2-4.7 6.7-1.6 1.5-4.1 3.2-5.6 3.7-1.6 0.6-5.4 1.1-8.5 1.1-4.8 0-6.6-0.5-10.3-3-2.5-1.7-7.5-5.4-11.2-8.3-3.7-2.9-9.8-6.4-13.7-7.9-3.9-1.6-10.4-3.3-14.3-3.9-4.2-0.7-10.7-0.9-15.3-0.5-4.4 0.4-11.4 1.8-15.5 3.2-4.1 1.4-9.3 3.6-11.5 5-2.2 1.3-6.3 4.3-9.2 6.6-2.8 2.4-7 6.6-9.2 9.3-2.3 2.8-5.7 7.9-7.5 11.5-1.9 3.6-4.2 9.4-5.2 13-1 4-1.7 10.2-1.7 16 0 5.8 0.6 12.1 1.7 16 0.9 3.6 3.3 9.9 5.4 14 2.7 5.7 5.7 9.5 12.2 16 5.9 5.9 10.5 9.5 15 11.7 3.6 1.8 10.1 4.1 14.5 5.3 5 1.3 11.2 2 16.5 2 5.3 0 11.5-0.7 16.5-2 4.4-1.2 10.9-3.6 14.5-5.5 3.6-1.9 9-5.7 12-8.4 3-2.7 7.2-5.6 9.3-6.5 2-0.9 5.6-1.6 8-1.6 2.3 0 6 0.9 8.2 1.9 2.2 1 5 2.9 6.2 4.2 1.2 1.3 3.2 4.7 4.4 7.4 1.5 3.6 2 6 1.5 8.8-0.3 2-1.2 4.9-2 6.5-0.7 1.5-4.5 5.6-8.2 9.2-3.8 3.6-10.7 8.9-15.4 11.8-4.7 2.9-11.9 6.6-16 8.1-4.1 1.6-12.2 3.9-18 5.1-8.9 1.9-12.6 2.1-24.5 1.7-9.3-0.4-16.8-1.3-22.2-2.6-4.6-1.2-11.6-3.5-15.5-5.3-4-1.7-11-5.6-15.5-8.5-4.6-2.9-11.7-8.6-15.9-12.5-4.2-4-9.8-10.2-12.6-13.8-2.7-3.6-7.1-11-9.8-16.5-2.8-5.5-6.2-14.5-7.7-20-2.4-9-2.7-11.7-2.7-26.5 0-14.9 0.3-17.5 2.7-26.5 1.5-5.5 4.7-14 7.1-19 2.4-4.9 7.1-12.6 10.3-17 3.3-4.4 9.1-10.9 12.9-14.4 3.8-3.4 10.5-8.7 14.9-11.6 4.4-2.9 11.8-6.8 16.5-8.8 4.7-1.9 11.9-4.2 16-5.1 4.1-0.8 8.6-1.7 10-2 1.4-0.2 9.5-0.3 18-0.1zm198 0c11.3 0.3 17.8 0.9 24 2.5 4.7 1.1 13.4 4.5 19.5 7.5 6.8 3.3 14.2 8 19.4 12.2 4.7 3.7 11.2 10.1 14.5 14 3.4 4 8.4 11 11.1 15.5 3 5 6.5 12.8 8.7 19.3 2.5 7.6 4 14.5 4.9 22.5 0.9 8.9 0.9 13.9 0 22-0.6 5.8-2.1 13.9-3.2 18-1.2 4.1-4 11.6-6.4 16.5-2.4 5-6.3 11.7-8.8 15-2.4 3.3-7 8.9-10.3 12.4-3.2 3.5-9.5 9.1-13.9 12.4-4.4 3.3-11 7.5-14.7 9.3-3.8 1.9-9.2 4.3-12 5.4-2.9 1-8.7 2.7-12.8 3.7-5.7 1.4-11.5 1.8-24 1.8-14.7 0-17.6-0.3-26-2.7-5.2-1.4-12.7-4-16.5-5.8-3.8-1.7-10.6-5.5-15-8.4-4.4-3-11.2-8.5-15-12.3-3.8-3.7-9.2-9.8-12-13.3-2.7-3.6-6.8-10.1-9.1-14.5-2.4-4.4-5.4-11.6-6.8-16-1.3-4.4-3-11.4-3.7-15.5-0.7-4.5-0.9-13-0.6-21.5 0.3-9.4 1.1-16.5 2.5-21.5 1.1-4.1 3.5-11.1 5.3-15.5 1.8-4.4 5.5-11.3 8.1-15.2 2.6-4 8.3-10.9 12.6-15.4 4.2-4.4 10-9.8 12.7-11.9 2.8-2.2 8.6-5.9 13-8.4 4.4-2.5 12.3-5.9 17.5-7.6 5.2-1.7 12.2-3.4 15.5-4 3.3-0.5 13-0.7 21.5-0.5zm-22.8 42.6c-3.7 1-9.5 3.5-12.9 5.6-3.5 2.1-8.6 6.1-11.4 8.8-2.9 2.8-6.6 6.8-8.4 9-1.8 2.2-4.7 6.7-6.3 10-1.7 3.3-3.8 9.2-4.8 13-1.2 5.3-1.5 9.9-1.1 19 0.3 9.3 1 13.5 2.9 18.5 1.3 3.6 3.6 8.8 5.2 11.5 1.6 2.8 6.5 8.6 11 13 5.9 5.9 10.1 9 15.6 11.7 4.1 2.1 11.1 4.5 15.5 5.4 5.8 1.2 10.7 1.5 18 1.1 5.9-0.3 12.7-1.4 16.5-2.6 3.6-1.1 9.4-3.7 12.9-5.8 3.5-2.1 9.3-6.7 12.9-10.3 3.6-3.6 8.2-9.4 10.3-13 2-3.6 4.7-9.6 5.9-13.5 1.8-5.5 2.2-9.6 2.3-19 0-8.7-0.4-13.6-1.7-18-1-3.3-3.4-9.1-5.4-13-2.5-4.7-6.3-9.6-11.7-15-5-5-10.4-9.3-14.5-11.4-3.6-1.9-9.2-4.3-12.5-5.3-3.5-1.1-10.2-2-16-2.2-5.5-0.3-11.3-0.2-12.8 0.1-1.6 0.3-5.9 1.4-9.5 2.4zm-334.7 93.2c7 0.2 10.2 0.8 14.5 2.8 3 1.4 7.5 4.3 10 6.6 2.5 2.2 6.1 6.9 8 10.4 3.4 6.2 3.5 6.7 3.5 17.4 0 9.9-0.3 11.6-2.7 16.5-1.5 3.3-4.8 7.5-8 10.3-2.9 2.7-7.8 6.1-10.8 7.5-4.9 2.4-6.7 2.7-16 2.7-9.7 0-11-0.2-17-3.2-3.8-1.8-8.4-5.1-11.1-8-2.5-2.6-5.5-6.7-6.7-9-1.2-2.4-2.6-7.1-3.2-10.5-0.6-3.8-0.6-8.5-0.1-11.8 0.5-3 1.7-7.5 2.8-10 1-2.5 3.9-6.7 6.4-9.4 2.4-2.6 6.4-6 8.9-7.4 2.5-1.4 6.3-3.2 8.5-3.9 2.4-0.8 7.6-1.2 13-1z"/>
</svg>